<?xml version="1.0" encoding="utf-8"?>
<!-- Generator: Adobe Illustrator 17.0.0, SVG Export Plug-In . SVG Version: 6.00 Build 0)  -->
<!DOCTYPE svg PUBLIC "-//W3C//DTD SVG 1.1//EN" "http://www.w3.org/Graphics/SVG/1.1/DTD/svg11.dtd">
<svg version="1.1" id="Layer_1" xmlns="http://www.w3.org/2000/svg" xmlns:xlink="http://www.w3.org/1999/xlink" x="0px" y="0px"
	 width="100px" height="25px" viewBox="0 0 100 25" enable-background="new 0 0 100 25" xml:space="preserve">
<g>
	<g>
		<path fill="#989898" d="M1.371,4.61c-0.791,0.31-0.1,0.924-0.1,0.924l3.232,1.96V3.646L1.371,4.61z"/>
		<path fill="#989898" d="M4.508,12.423H4.503v-0.217c0-0.023-0.002-0.046-0.002-0.07c0-0.022,0.002-0.043,0.002-0.065v-3.54
			C2.877,7.539,1.467,6.682,1.065,6.448C0.406,6.063,0.1,6.297,0.018,6.63c-0.055,0.221,0.03,0.545,0.03,0.545
			s1.485,8.852,1.736,10.402c0.121,0.748,0.166,0.945,0.277,1.141c0.247,0.435,6.91,5.325,7.778,5.874
			c0.868,0.548,0.96-0.411,0.96-0.411l-0.013-5.294C7.369,18.645,4.652,15.868,4.508,12.423z"/>
		<path fill="#FFCD05" d="M22.513,6.63c-0.082-0.333-0.388-0.566-1.047-0.182c-0.464,0.27-2.269,1.369-4.199,2.548
			c0.493,0.939,0.773,2.007,0.773,3.14c0,0.032-0.002,0.063-0.003,0.095v6.506H15.76v-6.63c-0.004-0.688-0.163-1.338-0.444-1.92
			c-0.127-0.264-0.28-0.514-0.454-0.746c-0.819-1.091-2.123-1.796-3.592-1.796c-1.294,0-2.46,0.548-3.279,1.424V6.214
			c0.972-0.539,2.089-0.847,3.279-0.847c2.292,0,4.316,1.14,5.54,2.882l4.294-2.628c1.193-0.71-0.364-1.193-0.364-1.193
			s-7.968-2.386-8.824-2.65c-0.856-0.264-1.311-0.009-1.311-0.009L7.919,2.595L7.917,0.587L6.78,0.239v8.635v1.048v2.241H6.78
			c0.013,2.303,1.76,4.195,4.001,4.437c0.161,0.017,0.323,0.027,0.489,0.027c0.162,0,0.322-0.009,0.479-0.025
			c1.101-0.117,2.083-0.632,2.8-1.399v2.855c-0.842,0.467-1.793,0.76-2.805,0.83l-0.013,5.292c0,0,0.091,0.96,0.96,0.411
			c0.868-0.548,7.531-5.439,7.778-5.874c0.111-0.196,0.156-0.393,0.277-1.141c0.25-1.551,1.736-10.402,1.736-10.402
			S22.567,6.851,22.513,6.63z"/>
	</g>
	<g>
		<path fill="#FFCD05" d="M40.669,9.349c-2.527,0-4.576,2.049-4.576,4.576c0,2.527,2.049,4.576,4.576,4.576
			c2.527,0,4.576-2.049,4.576-4.576C45.245,11.397,43.197,9.349,40.669,9.349z M40.669,16.987c-1.691,0-3.062-1.371-3.062-3.062
			s1.371-3.062,3.062-3.062c1.691,0,3.062,1.371,3.062,3.062S42.361,16.987,40.669,16.987z"/>
		<path fill="#FFCD05" d="M30.721,9.349c-0.797,0-1.547,0.204-2.199,0.563v1.885c0.557-0.575,1.336-0.934,2.199-0.934
			c1.691,0,3.062,1.371,3.062,3.062s-1.371,3.062-3.062,3.062c-1.691,0-3.062-1.371-3.062-3.062c0-0.002,0-0.004,0-0.006h0V6.384
			h-1.514v7.541h0.001c0,2.527,2.049,4.576,4.576,4.576c2.527,0,4.576-2.049,4.576-4.576C35.297,11.397,33.249,9.349,30.721,9.349z"
			/>
		<path fill="#989898" d="M81.941,9.349c0.797,0,1.547,0.204,2.199,0.563v1.885c-0.557-0.575-1.336-0.934-2.199-0.934
			c-1.691,0-3.062,1.371-3.062,3.062s1.371,3.062,3.062,3.062c1.691,0,3.062-1.371,3.062-3.062c0-0.002,0-0.004,0-0.006h0V6.384
			h1.514v7.541h-0.001c0,2.527-2.049,4.576-4.576,4.576c-2.527,0-4.576-2.049-4.576-4.576C77.365,11.397,79.414,9.349,81.941,9.349z
			"/>
		<rect x="87.972" y="9.472" fill="#989898" width="1.514" height="8.959"/>
		<rect x="64.299" y="6.384" fill="#989898" width="1.514" height="12.046"/>
		<polygon fill="#FFCD05" points="53.88,9.358 51.986,9.358 49.242,12.73 46.499,9.358 44.605,9.358 48.296,13.894 44.605,18.43 
			46.498,18.43 49.242,15.057 51.987,18.43 53.88,18.43 50.189,13.894 		"/>
		<path fill="#989898" d="M58.111,18.501c0.797,0,1.547-0.204,2.199-0.563v-1.885c-0.557,0.575-1.336,0.934-2.199,0.934
			c-1.691,0-3.062-1.371-3.062-3.062s1.371-3.062,3.062-3.062c1.691,0,3.062,1.371,3.062,3.062c0,0.002,0,0.004,0,0.006h0v4.5h1.514
			v-4.506h-0.001c0-2.527-2.049-4.576-4.576-4.576c-2.527,0-4.576,2.049-4.576,4.576C53.535,16.452,55.584,18.501,58.111,18.501z"/>
		<path fill="#989898" d="M71.522,18.501c0.797,0,1.547-0.204,2.199-0.563v-1.885c-0.557,0.575-1.336,0.934-2.199,0.934
			c-1.691,0-3.062-1.371-3.062-3.062s1.371-3.062,3.062-3.062s3.062,1.371,3.062,3.062c0,0.002,0,0.004,0,0.006h0v4.5h1.514v-4.506
			h-0.001c0-2.527-2.049-4.576-4.576-4.576c-2.527,0-4.576,2.049-4.576,4.576C66.946,16.452,68.995,18.501,71.522,18.501z"/>
		<path fill="#989898" d="M99.999,13.925c0-2.526-2.048-4.575-4.574-4.576v0c0,0-0.001,0-0.001,0l-0.001,0v0
			c-2.526,0.001-4.574,2.049-4.574,4.576h-0.001v4.506h1.514v-4.5h0c0-0.002,0-0.004,0-0.006c0-1.691,1.37-3.062,3.061-3.062
			c1.691,0.001,3.061,1.371,3.061,3.062c0,0.002,0,0.004,0,0.006h0v4.5H100L99.999,13.925L99.999,13.925z"/>
		<circle fill="#FFCD05" cx="88.73" cy="7.684" r="1.059"/>
	</g>
</g>
</svg>
