<?xml version="1.0" encoding="utf-8"?>
<!-- Generator: Adobe Illustrator 17.0.0, SVG Export Plug-In . SVG Version: 6.00 Build 0)  -->
<!DOCTYPE svg PUBLIC "-//W3C//DTD SVG 1.1//EN" "http://www.w3.org/Graphics/SVG/1.1/DTD/svg11.dtd">
<svg version="1.1" id="Layer_1" xmlns="http://www.w3.org/2000/svg" xmlns:xlink="http://www.w3.org/1999/xlink" x="0px" y="0px"
	 width="100px" height="40px" viewBox="0 0 100 40" enable-background="new 0 0 100 40" xml:space="preserve">
<g>
	<g>
		<path fill="#AAB0B4" d="M32.146,18.321c-0.499-4.138-7.982-6.642-16.714-5.59c-8.732,1.053-15.406,5.261-14.906,9.4
			c0.349,2.905,4.14,5.001,9.386,5.631l0.013-0.445c-3.588-0.623-6.072-2.098-6.311-4.082c-0.383-3.194,5.193-6.495,12.456-7.374
			c7.263-0.878,13.462,1,13.847,4.193c0.267,2.239-2.394,4.527-6.507,5.999l-0.164,0.356C28.823,24.592,32.521,21.439,32.146,18.321
			z"/>
		<path fill="#AAB0B4" d="M19.123,4.468c-4.107-0.711-8.655,5.737-10.158,14.402c-1.501,8.666,0.612,16.268,4.72,16.979
			c4.108,0.713,8.656-5.736,10.158-14.401C25.344,12.784,23.231,5.182,19.123,4.468z M23.523,21.034
			c-1.242,6.913-4.812,12.089-7.975,11.56c-3.162-0.529-4.719-6.562-3.478-13.476c1.242-6.913,4.813-12.09,7.975-11.561
			C23.208,8.087,24.764,14.121,23.523,21.034z"/>
		<polygon fill="#5A595B" points="12.881,12.157 21.445,10.86 26.895,18.191 23.132,26.691 14.243,27.534 9.247,20.657 		"/>
		<polygon fill="#E12228" points="10.245,10.651 18.809,9.354 24.259,16.685 20.496,25.184 11.607,26.027 6.612,19.151 		"/>
		<path fill="#FFFFFF" d="M21.17,12.529c-1.805-0.11-3.743-0.059-5.749,0.183c-0.504,0.061-0.996,0.139-1.485,0.219
			c0.572-1.218,1.214-2.284,1.901-3.133l-4.194,0.628c-0.524,1.016-1,2.14-1.419,3.343c-0.529,0.155-1.044,0.322-1.542,0.499
			l-1.916,4.52c0.7-0.431,1.509-0.83,2.389-1.195c-0.09,0.419-0.173,0.844-0.248,1.274c-0.175,1.01-0.299,2.005-0.378,2.977
			l2.957,4.253l0.228-0.023c-0.23-2.057-0.153-4.448,0.298-6.959c0.165-0.916,0.373-1.799,0.613-2.644
			c1.088-0.266,2.234-0.484,3.434-0.629c2.813-0.34,5.46-0.262,7.678,0.14L21.17,12.529z"/>
	</g>
	<g>
		<path fill="#010101" d="M36.683,26.183h-1.594l1.36-8.647h-2.336l0.272-1.735h6.174l-0.272,1.735h-2.244L36.683,26.183z"/>
		<path fill="#010101" d="M39.97,26.183l1.623-10.382h5.76l-0.272,1.735h-4.16l-0.371,2.358h4.026l-0.272,1.735h-4.027l-0.443,2.819
			h4.47l-0.265,1.735H39.97z"/>
		<path fill="#010101" d="M47.224,26.183l1.625-10.382h1.601l-1.36,8.647h3.968l-0.272,1.735H47.224z"/>
		<path fill="#010101" d="M53.856,26.183l1.62-10.382h1.597l-0.682,4.402l3.582-4.402h2.151l-3.492,4.081l2.551,6.302h-1.802
			l-1.914-4.939l-1.509,1.763l-0.492,3.177H53.856z"/>
		<path fill="#010101" d="M62.157,22.106c0-0.897,0.138-1.819,0.414-2.767c0.349-1.218,0.867-2.141,1.552-2.771
			c0.685-0.63,1.478-0.945,2.379-0.945c0.935,0,1.706,0.39,2.311,1.168c0.605,0.778,0.908,1.84,0.908,3.184
			c0,1.218-0.216,2.341-0.65,3.37c-0.433,1.029-0.97,1.788-1.613,2.279c-0.642,0.491-1.349,0.736-2.121,0.736
			c-0.922,0-1.657-0.354-2.204-1.062C62.482,24.463,62.157,23.399,62.157,22.106z M63.741,22.063c0,0.764,0.171,1.374,0.514,1.829
			c0.343,0.455,0.76,0.683,1.251,0.683c0.396,0,0.789-0.17,1.177-0.51c0.388-0.339,0.725-0.897,1.011-1.673
			c0.287-0.776,0.43-1.565,0.43-2.367c0-0.84-0.177-1.5-0.529-1.981c-0.311-0.425-0.718-0.637-1.222-0.637
			c-0.405,0-0.806,0.172-1.202,0.517c-0.397,0.344-0.734,0.898-1.012,1.659C63.88,20.345,63.741,21.172,63.741,22.063z"/>
		<path fill="#010101" d="M74.615,26.183h-1.524l-0.277-8.676l-1.232,8.676h-1.441l1.621-10.382h2.279l0.239,7.273l2.623-7.273
			h2.298l-1.595,10.382h-1.461l1.509-8.612L74.615,26.183z"/>
		<path fill="#010101" d="M79.386,22.819l1.519-0.106c0.022,0.557,0.08,0.944,0.175,1.161c0.095,0.217,0.252,0.388,0.472,0.514
			c0.22,0.125,0.52,0.187,0.899,0.187c0.491,0,0.861-0.118,1.109-0.354c0.248-0.236,0.371-0.545,0.371-0.928
			c0-0.269-0.071-0.5-0.213-0.694c-0.142-0.189-0.51-0.456-1.105-0.801c-0.755-0.439-1.256-0.78-1.504-1.023
			c-0.248-0.243-0.44-0.542-0.575-0.896c-0.136-0.354-0.204-0.758-0.204-1.212c0-0.925,0.248-1.664,0.744-2.216
			c0.495-0.552,1.172-0.829,2.03-0.829c0.866,0,1.559,0.275,2.078,0.823c0.52,0.549,0.805,1.323,0.857,2.321l-1.532,0.085
			c-0.078-1.024-0.549-1.537-1.413-1.537c-0.428,0-0.742,0.099-0.943,0.295c-0.201,0.196-0.302,0.465-0.302,0.805
			c0,0.312,0.095,0.565,0.287,0.759c0.186,0.199,0.562,0.463,1.126,0.794c0.746,0.43,1.241,0.764,1.488,1.002
			c0.246,0.239,0.435,0.531,0.567,0.877c0.132,0.347,0.198,0.74,0.198,1.179c0,0.981-0.283,1.782-0.847,2.402
			c-0.565,0.62-1.31,0.931-2.237,0.931c-0.698,0-1.294-0.163-1.788-0.489c-0.493-0.325-0.83-0.76-1.008-1.303
			C79.456,24.025,79.373,23.442,79.386,22.819z"/>
		<path fill="#010101" d="M86.413,26.183l1.623-10.382h5.76l-0.272,1.735h-4.159l-0.371,2.358h4.026l-0.272,1.735h-4.027
			l-0.443,2.819h4.47l-0.265,1.735H86.413z"/>
		<path fill="#010101" d="M93.666,26.183l1.625-10.382h1.601l-1.36,8.647H99.5l-0.272,1.735H93.666z"/>
	</g>
</g>
</svg>
