<?xml version="1.0" encoding="utf-8"?>
<!-- Generator: Adobe Illustrator 17.0.0, SVG Export Plug-In . SVG Version: 6.00 Build 0)  -->
<!DOCTYPE svg PUBLIC "-//W3C//DTD SVG 1.1//EN" "http://www.w3.org/Graphics/SVG/1.1/DTD/svg11.dtd">
<svg version="1.1" id="Layer_1" xmlns="http://www.w3.org/2000/svg" xmlns:xlink="http://www.w3.org/1999/xlink" x="0px" y="0px"
	 width="40px" height="40px" viewBox="0 0 40 40" enable-background="new 0 0 40 40" xml:space="preserve">
<g>
	<linearGradient id="SVGID_1_" gradientUnits="userSpaceOnUse" x1="19.9915" y1="30.2643" x2="20.0604" y2="3.5077">
		<stop  offset="0" style="stop-color:#FCBD84"/>
		<stop  offset="0.3273" style="stop-color:#EF413E"/>
		<stop  offset="0.5106" style="stop-color:#EF403C"/>
		<stop  offset="0.5767" style="stop-color:#EE3C39"/>
		<stop  offset="0.6237" style="stop-color:#ED3432"/>
		<stop  offset="0.6615" style="stop-color:#EC282A"/>
		<stop  offset="0.6727" style="stop-color:#EB2227"/>
	</linearGradient>
	<path fill="url(#SVGID_1_)" d="M6.779,12.056c0,0-2.732-0.701-1.891-3.082s4.861-5.987,12.12-7.916
		c6.679-1.775,14.221,0.794,15.015,6.165c0.624,4.221-0.514,6.025-2.335,8.967c0,0,6.865,3.643,5.464,11.349
		c-1.401,7.706-6.853,9.961-11.139,11.419c-4.222,1.436-14.081,0.07-17.444-4.694S4.467,23.195,8.95,21.304
		c4.484-1.891,9.773,0.981,9.492,5.359c0,0,2.522-0.105,3.223-2.907c0.701-2.802-2.347-2.382-3.152-2.557
		c-0.806-0.175-6.27-0.981-5.429-4.028c0,0,0.35-1.074,1.635-2.008c1.284-0.934,3.479-2.358,3.479-2.358s-1.191-0.304-3.526-0.327
		C12.336,12.453,8.296,12.523,6.779,12.056z"/>
	<linearGradient id="SVGID_2_" gradientUnits="userSpaceOnUse" x1="5.3196" y1="20.0334" x2="34.5664" y2="20.0334">
		<stop  offset="0" style="stop-color:#C6C7C9"/>
		<stop  offset="0.083" style="stop-color:#D5D6D7"/>
		<stop  offset="0.2034" style="stop-color:#E6E6E6"/>
		<stop  offset="0.3493" style="stop-color:#F2F2F2"/>
		<stop  offset="0.5449" style="stop-color:#FBFBFB"/>
		<stop  offset="1" style="stop-color:#FFFFFF"/>
	</linearGradient>
	<path fill="url(#SVGID_2_)" stroke="#F78F27" stroke-width="0.028" d="M6.872,11.333c0,0-2.499-0.584-0.841-3.036
		s5.844-4.63,6.772-5.015c0.928-0.385,4.834-2.312,10.176-1.979s7.426,3.555,7.881,4.606s1.997,5.114-1.874,10.088
		c0,0-0.246,0.255-0.074,0.381c0.172,0.126,2.339,1.843,2.339,1.843s1.938,1.6,2.721,3.795c0.782,2.195,0.654,4.343,0.397,5.908
		c-0.257,1.565-1.097,3.257-1.588,4.016c-0.49,0.759-2.656,4.057-7.175,5.704s-8.669,1.366-12.435,0.228
		c-3.765-1.138-5.85-3.73-6.76-5.359s-2.032-5.272,0.263-8.477c2.294-3.205,6.515-2.68,7.951-2.032
		c1.436,0.648,3.363,1.821,3.047,5.429c0,0,2.417,0.07,3.573-1.401c1.156-1.471,1.191-2.347,1.226-3.433
		c0.035-1.086-1.261-1.751-2.102-1.891c-0.841-0.14-4.39-0.362-5.955-1.67s-0.187-2.709,1.284-3.713s2.779-1.845,3.293-2.359
		c0.514-0.514-0.467-0.934-1.121-1.004c-0.654-0.07-4.507-0.304-7.449-0.233C7.479,11.8,6.872,11.333,6.872,11.333z"/>
	<linearGradient id="SVGID_3_" gradientUnits="userSpaceOnUse" x1="11.4222" y1="31.4175" x2="27.0632" y2="9.2671">
		<stop  offset="0" style="stop-color:#F5967A"/>
		<stop  offset="0.5273" style="stop-color:#EB2227"/>
	</linearGradient>
	<path fill="url(#SVGID_3_)" d="M6.592,9.558c0,0,0.374-1.354,3.152-3.293c2.779-1.938,5.838-3.269,9.878-3.83
		s7.916,0.934,9.037,2.312c1.121,1.378,3.619,3.97-0.257,10.111c0,0-1.168,1.611-0.514,2.055c0,0,2.475,1.962,2.826,2.335
		c0.35,0.374,2.475,2.499,2.685,4.74c0.21,2.242,0.397,7.332-5.511,11.302s-13.964,2.265-16.697,0.467
		c-2.732-1.798-6.69-5.733-3.853-10.672s10.333-2.277,9.457,2.382c0,0-0.405-1.765-1.976-1.797
		c-1.571-0.032-1.811,1.234-1.859,2.004c0,0-1.266,0.08-1.202-2.212c0,0-1.667,1.491-1.026,3.447c0,0,0.506,1.14,1.347,1.758
		c0,0,0.385,0.303,0.21,0.397c-0.175,0.093-0.444,0.56-2.207,0.35c0,0,1.237,1.973,3.654,2.394s4.413-0.409,4.705-0.56
		c0.292-0.152,0.584-0.082,0.56,0.21c-0.023,0.292-0.175,1.343-1.308,2.323c0,0,2.23-0.245,3.549-1.039
		c1.319-0.794,2.254-1.494,2.931-2.639c0.677-1.144,1.179-2.452,1.6-1.833c0,0,0.595,1.308,0.385,3.386c0,0,1.308-1.144,1.845-2.826
		c0.537-1.681,0.304-3.292,0.07-4.063s-0.724-1.635-0.117-1.763c0,0,1.167-0.011,2.79,0.817c0,0-1.016-3.585-6.363-5.243
		c-5.348-1.658-7.823-1.144-8.967-2.125c0,0,2.405-0.14,5.721-2.475s3.012-2.312,3.012-2.312s0.514-0.304,0.701,0.257
		c0.187,0.56,0.304,1.962-0.047,2.592c0,0,1.798-1.004,2.195-2.849s-0.56-3.363-1.144-3.76c-0.584-0.397-0.397-0.864,0.21-1.004
		c0.607-0.14,1.588-0.28,2.172-0.07c0,0-1.658-2.288-3.97-2.172c-2.312,0.117-4.507,1.261-4.086,0.397
		c0.42-0.864,2.055-2.265,2.055-2.265s-3.526,0.163-7.402,2.335C9.296,10.232,6.311,11.403,6.592,9.558z"/>
	<linearGradient id="SVGID_4_" gradientUnits="userSpaceOnUse" x1="11.6588" y1="21.5496" x2="21.0791" y2="7.6656">
		<stop  offset="0" style="stop-color:#F38366"/>
		<stop  offset="1" style="stop-color:#ED332B"/>
	</linearGradient>
	<path fill="url(#SVGID_4_)" d="M9.616,10.655c0,0,3.608-1.716,4.378-2.172S18.58,6.172,20,5.716c0,0-1.522,2.662,0.229,2.469
		c1.751-0.193,3.503-1.664,6.165-0.158c0,0-2.732,0.595-1.226,2.207c1.506,1.611,1.483,2.685,0.56,4.484c0,0-0.14-2.767-2.102-1.541
		s-4.273,4.168-8.827,4.554c0,0,0.28-0.946,3.205-2.557s2.504-3.188,1.489-3.678S18.303,10.515,9.616,10.655z"/>
	<linearGradient id="SVGID_5_" gradientUnits="userSpaceOnUse" x1="16.5142" y1="32.574" x2="27.802" y2="19.0304">
		<stop  offset="0" style="stop-color:#F5967A"/>
		<stop  offset="0.5576" style="stop-color:#EF412F"/>
	</linearGradient>
	<path fill="url(#SVGID_5_)" d="M22.786,20.883c0,0,3.993,0.876,6.27,3.503c0,0-2.487-0.736-2.067,1.471
		c0.42,2.207,1.366,2.452-0.175,5.745c0,0-0.14-3.258-2.137-1.856c0,0-1.471,3.888-5.359,4.869c0,0,0.841-1.611,0-2.067
		c-0.841-0.455-4.659,1.856-7.426-0.455c0,0,1.962-0.584,0.864-1.868c-1.097-1.284-1.331-0.911-1.331-2.931
		c0,0,0.63,1.261,1.273,1.191c0.642-0.07,1.027-0.117,1.086-0.817c0.058-0.701,0.362-1.67,1.635-0.911
		c1.273,0.759,0.876,3.094,0.479,3.596c0,0,0.899-0.327,1.635-1.833c0,0,3.188,0.175,4.764-1.927
		C23.872,24.491,23.77,21.885,22.786,20.883z"/>
</g>
</svg>
