<?xml version="1.0" encoding="utf-8"?>
<!-- Generator: Adobe Illustrator 17.0.0, SVG Export Plug-In . SVG Version: 6.00 Build 0)  -->
<!DOCTYPE svg PUBLIC "-//W3C//DTD SVG 1.1//EN" "http://www.w3.org/Graphics/SVG/1.1/DTD/svg11.dtd">
<svg version="1.1" id="Layer_1" xmlns="http://www.w3.org/2000/svg" xmlns:xlink="http://www.w3.org/1999/xlink" x="0px" y="0px"
	 width="50px" height="40px" viewBox="0 0 50 40" enable-background="new 0 0 50 40" xml:space="preserve">
<g>
	<g id="_x23_00c89fff">
		<path fill="#39BB9A" d="M29.402,2.873c0.393-0.251,0.874-0.468,1.346-0.33c0.419,0.159,0.564,0.65,0.554,1.06
			c0.002,5.125,0.001,10.249,0,15.374c4.848,0,9.695-0.003,14.543,0.001c0.387-0.002,0.852,0.128,1.005,0.524
			c0.16,0.47-0.083,0.949-0.296,1.359c-1.27,2.336-2.596,4.642-3.942,6.935c-0.4,0.533-0.927,1.029-1.591,1.19
			c-0.553,0.133-1.125,0.128-1.69,0.137c-1.609,0.006-3.217,0.002-4.825,0.003c-0.7-0.003-1.487,0.03-2.039,0.518
			c-0.459,0.438-0.402,1.148-0.223,1.704c0.391,1.187,1.138,2.208,1.69,3.319c-0.569-0.381-1.119-0.79-1.644-1.229
			c-1.634-1.445-3.129-3.05-4.393-4.831c-3.791-5.254-5.752-11.682-6.109-18.116c-0.062-1.411,0.515-2.955,1.777-3.695
			C25.511,5.488,27.457,4.181,29.402,2.873z"/>
	</g>
	<g id="_x23_002cbaff">
		<path fill="#2E469D" d="M3.157,13.148c0.201-0.421,0.707-0.551,1.136-0.544c2.943,0.001,5.887,0,8.83,0.001
			c0.51,0.01,1.047,0.031,1.507,0.28c0.467,0.253,0.82,0.661,1.178,1.043c1.074,1.222,2.146,2.446,3.219,3.668
			c0.061,0.064,0.171,0.207,0.257,0.084c0.591-0.64,1.151-1.31,1.738-1.955c0.491,3.127,1.7,6.113,3.335,8.812
			c2.083,3.411,4.82,6.404,7.933,8.901c0.525,0.439,1.075,0.848,1.644,1.229c0.355,0.388,0.694,0.791,1.035,1.191
			c0.257,0.297,0.431,0.728,0.271,1.111c-0.176,0.381-0.625,0.536-1.019,0.531c-2.973,0.003-5.946,0-8.919,0.002
			c-0.499,0-1.022-0.014-1.478-0.243c-0.478-0.247-0.845-0.652-1.204-1.042c-1.057-1.204-2.114-2.407-3.168-3.613
			c-0.08-0.096-0.177-0.175-0.28-0.243c-1.121,1.255-2.219,2.531-3.336,3.789c-0.366,0.407-0.742,0.827-1.229,1.093
			c-0.454,0.238-0.978,0.258-1.478,0.258c-2.976-0.002-5.952,0.001-8.927-0.001c-0.428,0.012-0.936-0.17-1.071-0.615
			c-0.13-0.455,0.146-0.876,0.438-1.196c3.087-3.549,6.178-7.095,9.281-10.629c-3.108-3.579-6.246-7.131-9.349-10.715
			C3.212,14.029,2.991,13.576,3.157,13.148z"/>
	</g>
</g>
</svg>
